<?xml version="1.0" encoding="UTF-8"?><svg id="Layer_2" xmlns="http://www.w3.org/2000/svg" viewBox="0 0 3084.97 906.36"><defs><style>.cls-1{fill:#fff;}</style></defs><g id="Layer_1-2"><path class="cls-1" d="M493.01,543.95h-84.97c-4.48-16.49-7.4-34.9-8.87-52.87-29.71,40.07-82.07,61.83-156.59,61.83C86.95,552.91,0,435.29,0,282.58,0,121.41,93.76,0,262.78,0,400.75,0,481.94,77.87,494.94,169.29h-115.94c-11-35.92-39.34-78.38-117.78-78.38-110.08,0-141.49,92.08-141.49,186.6s35.92,183.11,142.21,183.11c99.13,0,117.38-68.8,117.38-116.77v-4.85h-117.57v-95.03h231.26v299.98Z"/><rect class="cls-1" x="376.96" y="429.01" width="116.03" height="351.9"/><rect class="cls-1" x="512.2" y="429.01" width="116.03" height="351.9"/><path class="cls-1" d="M515.53,780.92h-3.34s1.41,16.2-9.6,16.2-9.6-16.2-9.6-16.2h-116.03c.1,69.3,56.31,125.44,125.63,125.44s125.53-56.14,125.63-125.44h-112.69Z"/><path class="cls-1" d="M742.29,0c-137.97,0-228.43,88.07-230.24,169.29h114.01c11-35.92,39.34-78.38,117.78-78.38,110.08,0,141.49,92.08,141.49,186.6s-35.92,183.11-142.21,183.11c-99.13,0-117.38-68.8-117.38-116.77v-99.88h-113.69v299.98h84.97c4.48-16.49,7.41-34.9,8.87-52.87,29.71,40.07,82.07,61.83,156.59,61.83,155.63,0,242.58-117.62,242.58-270.33C1005.07,121.41,911.31,0,742.29,0Z"/><path class="cls-1" d="M626.07,169.29c-1.14,7.49-.32,74.68-.32,74.68l-10.54,2.22-5.55-84.9s17.55.52,16.41,8.01Z"/><rect class="cls-1" x="512.06" y="169.29" width="22.28" height="74.68"/><rect class="cls-1" x="528.27" y="159.63" width="91.08" height="95.57"/><path class="cls-1" d="M1592.42,387.01c-24.51,99.77-111.17,165.9-213.22,165.9-132.27,0-222.34-105.47-222.34-219.49,0-107.75,83.24-218.35,221.2-218.35s202.96,102.05,214.36,168.18h-112.88c-11.97-31.35-43.9-73.54-102.05-73.54-72.4,0-112.88,63.28-112.88,123.14,0,63.85,43.33,125.42,113.45,125.42s94.64-56.44,101.48-71.26h112.88Z"/><path class="cls-1" d="M1651.14,123.05h107.75v327.24h124.85v94.64h-232.61V123.05Z"/><path class="cls-1" d="M1925.94,123.05h107.75v421.88h-107.75V123.05Z"/><path class="cls-1" d="M2110.08,123.05h234.32v94.64h-131.12v65.56h127.13v94.64h-127.13v72.4h131.12v94.64h-234.32V123.05Z"/><path class="cls-1" d="M2411.1,123.05h92.93l163.05,265.1,1.14-1.14-4.56-263.96h103.19v421.88h-93.5l-160.77-256.55-1.14.57,2.85,255.98h-103.19V123.05Z"/><path class="cls-1" d="M2894.55,217.69h-83.23v-94.64h273.65v94.64h-82.66v327.24h-107.75V217.69Z"/></g></svg>